<svg width="341" height="59" viewBox="0 0 341 59" fill="none" xmlns="http://www.w3.org/2000/svg">
<path d="M24.5851 0C27.3846 2.79346 30.1514 5.55806 33 8.40021C32.8456 8.56612 32.6367 8.80597 32.4132 9.02959C27.4064 14.0033 22.4015 18.9807 17.3802 23.9418C16.9206 24.3963 16.6917 24.8417 16.6953 25.5054C16.7189 30.3439 16.7062 35.1824 16.6844 40.0209C16.6844 40.3834 16.6317 40.8613 16.4046 41.0921C13.7614 43.7774 11.0799 46.4248 8.48935 49C5.65533 46.1849 2.86491 43.4113 0 40.5637C0.0763006 40.4826 0.287035 40.2409 0.514121 40.0155C5.52089 35.0417 10.524 30.0608 15.549 25.105C16.0413 24.6199 16.2302 24.1348 16.2266 23.4531C16.1993 18.6453 16.2048 13.8374 16.2266 9.02779C16.2284 8.64547 16.332 8.15134 16.5827 7.89706C19.1442 5.29837 21.7439 2.73755 24.3381 0.167716C24.4198 0.0865629 24.5306 0.0378713 24.5888 0L24.5851 0Z" fill="white"/>
<path d="M18.4221 59C15.6093 56.1867 12.8308 53.4077 10 50.5763C10.112 50.459 10.3306 50.217 10.56 49.9877C15.5406 45.0075 20.5177 40.0237 25.5163 35.0616C25.986 34.5957 26.1649 34.1371 26.1613 33.4852C26.136 28.6711 26.1324 23.8553 26.1721 19.0412C26.1757 18.5681 26.4088 17.9813 26.7376 17.6418C29.0861 15.2239 31.4869 12.8566 33.8716 10.4749C34.0595 10.2871 34.26 10.112 34.3792 10C37.1866 12.8097 39.9632 15.5869 43 18.6259C42.8338 18.718 42.4508 18.8318 42.2015 19.0792C37.2082 24.0467 32.2204 29.0196 27.2651 34.0233C26.9327 34.3592 26.6834 34.9442 26.6779 35.4155C26.6346 40.2295 26.64 45.0454 26.6653 49.8595C26.6689 50.5492 26.4575 51.035 25.968 51.5135C23.605 53.832 21.2746 56.1849 18.9315 58.5233C18.7436 58.7111 18.5413 58.8862 18.4221 58.9982V59Z" fill="#5CE1E6"/>
<path d="M309.082 22.6451C310.623 21.3208 312.634 19.9965 315.114 18.6722C317.618 17.3239 320.194 16.6497 322.843 16.6497C326.791 16.6497 329.753 17.8295 331.727 20.1891C333.702 22.5247 334.689 25.7872 334.689 29.9767V50.6715L340.215 52.5134V56.5946H322.481V52.5134L327.285 50.6715V30.699C327.285 28.0264 326.767 26.0641 325.732 24.8121C324.696 23.56 322.999 22.934 320.639 22.934C318.761 22.934 317.028 23.3794 315.439 24.2703C313.874 25.1612 312.561 26.1243 311.502 27.1596C310.442 28.195 309.913 28.7608 309.913 28.8571V50.6715L314.716 52.5134V56.5946H296.225V52.5134L302.509 50.6715V23.2952L296.225 21.8144V17.7693L308.432 17.4082L309.082 22.6451Z" fill="#5CE1E6"/>
<path d="M272.893 16.6497C278.359 16.6497 282.621 18.4194 285.679 21.9588C288.736 25.4742 290.265 30.2416 290.265 36.261C290.265 40.4024 289.495 44.0742 287.954 47.2765C286.437 50.4789 284.27 52.9589 281.453 54.7165C278.66 56.4501 275.434 57.3169 271.774 57.3169C266.164 57.3169 261.806 55.6315 258.7 52.2606C255.594 48.8897 254.041 43.9297 254.041 37.3806C254.041 33.2392 254.835 29.6035 256.424 26.4734C258.037 23.3192 260.265 20.8994 263.106 19.214C265.947 17.5045 269.209 16.6497 272.893 16.6497ZM272.532 22.5728C268.872 22.5728 266.164 23.7767 264.406 26.1845C262.672 28.5682 261.806 32.1678 261.806 36.9833C261.806 46.5903 265.261 51.4059 272.171 51.4299C275.783 51.4299 278.407 50.202 280.044 47.7461C281.682 45.266 282.5 41.5581 282.5 36.6222C282.5 27.2559 279.178 22.5728 272.532 22.5728Z" fill="#5CE1E6"/>
<path d="M241.869 51.0326L242.917 45.1456H248.081V56.5946H218.502V51.0326L240.1 22.934H226.195L225.147 28.4959H219.983V17.4081H248.479V22.934L226.809 51.0326H241.869Z" fill="#5CE1E6"/>
<path d="M198.168 5.20078C198.168 3.5635 198.638 2.28738 199.577 1.37243C200.516 0.457476 201.647 0 202.972 0C206.174 0 207.775 1.73359 207.775 5.20078C207.775 6.78991 207.282 8.05399 206.294 8.99301C205.307 9.90797 204.2 10.3654 202.972 10.3654C201.503 10.3654 200.335 9.90797 199.468 8.99301C198.602 8.07806 198.168 6.81398 198.168 5.20078ZM212.579 56.5946H193.365V52.5134L199.649 50.6715V23.2952L193.365 21.8144V17.7693L207.053 17.4082V50.6715L212.579 52.5134V56.5946Z" fill="#5CE1E6"/>
<path d="M171.839 22.7895C173.236 21.2726 174.885 19.8761 176.787 18.6C178.713 17.2998 180.796 16.6497 183.035 16.6497C184.119 16.6497 185.142 16.734 186.105 16.9025C187.093 17.0711 187.899 17.2517 188.525 17.4443C189.151 17.6128 189.536 17.7212 189.681 17.7693L189.32 28.4959H184.48L183.397 22.934C180.941 22.934 178.822 23.5239 177.04 24.7037C175.258 25.8835 173.802 27.2198 172.67 28.7126V50.6715L180.074 52.5134V56.5946H158.982V52.5134L165.266 50.6715V23.2952L158.982 21.8144V17.7693L171.189 17.4082L171.839 22.7895Z" fill="white"/>
<path d="M135.651 16.6497C141.116 16.6497 145.378 18.4194 148.436 21.9588C151.494 25.4742 153.023 30.2416 153.023 36.261C153.023 40.4024 152.252 44.0742 150.711 47.2765C149.194 50.4789 147.027 52.9589 144.21 54.7165C141.417 56.4501 138.191 57.3169 134.531 57.3169C128.921 57.3169 124.563 55.6315 121.457 52.2606C118.351 48.8897 116.798 43.9297 116.798 37.3806C116.798 33.2392 117.592 29.6035 119.181 26.4734C120.795 23.3192 123.022 20.8994 125.863 19.214C128.704 17.5045 131.967 16.6497 135.651 16.6497ZM135.289 22.5728C131.63 22.5728 128.921 23.7767 127.163 26.1845C125.43 28.5682 124.563 32.1678 124.563 36.9833C124.563 46.5903 128.018 51.4059 134.928 51.4299C138.54 51.4299 141.164 50.202 142.802 47.7461C144.439 45.266 145.258 41.5581 145.258 36.6222C145.258 27.2559 141.935 22.5728 135.289 22.5728Z" fill="white"/>
<path d="M58 52.1522L64.2843 50.6715V10.7266L58 9.2458V5.20075L79.0921 4.80347V9.2458L72.0493 10.7266V27.0151H96.8253V10.7266L89.8187 9.2458V5.20075L110.875 4.80347V9.2458L104.59 10.7266V50.6715L110.875 52.1522V56.5946H89.8187V52.1522L96.8253 50.6715V32.9382H72.0493V50.6715L79.0921 52.1522V56.5946H58V52.1522Z" fill="white"/>
</svg>
